<?xml version="1.0" standalone="no"?>
<!DOCTYPE svg PUBLIC "-//W3C//DTD SVG 20010904//EN"
 "http://www.w3.org/TR/2001/REC-SVG-20010904/DTD/svg10.dtd">
<svg version="1.0" xmlns="http://www.w3.org/2000/svg"
 width="512.000000pt" height="512.000000pt" viewBox="0 0 512.000000 512.000000"
 preserveAspectRatio="xMidYMid meet">
<metadata>
Created by potrace 1.16, written by Peter Selinger 2001-2019
</metadata>
<g transform="translate(0.000000,512.000000) scale(0.100000,-0.100000)"
fill="#000000" stroke="none">
<path d="M1819 5097 c-64 -34 -100 -97 -107 -187 l-5 -70 -116 0 c-136 0 -177
-14 -232 -78 l-35 -41 -394 -3 c-439 -3 -430 -2 -508 -73 -23 -20 -50 -55 -61
-79 l-21 -42 0 -2167 0 -2167 21 -45 c26 -56 95 -117 147 -133 29 -9 452 -12
1683 -12 1571 0 1646 1 1684 19 50 22 99 70 128 125 l22 41 3 893 3 892 -25
25 c-39 39 -103 27 -125 -22 -8 -17 -11 -276 -11 -886 0 -948 4 -889 -60 -922
-25 -13 -229 -15 -1630 -15 -1759 0 -1642 -4 -1675 60 -13 26 -15 273 -15
2145 0 1872 2 2119 15 2145 31 59 38 60 445 60 l370 0 0 -75 0 -75 -287 0
c-270 0 -290 -1 -321 -20 -18 -11 -41 -34 -52 -52 -20 -33 -20 -55 -20 -1983
0 -1928 0 -1950 20 -1983 11 -18 34 -41 52 -52 33 -20 54 -20 1468 -20 1381 0
1437 1 1470 19 19 10 44 34 55 52 19 33 20 57 25 769 l5 735 107 165 c254 392
885 1390 910 1439 54 105 31 249 -53 328 -47 43 -194 131 -243 144 -53 15
-146 5 -196 -21 -60 -31 -92 -70 -211 -260 -59 -96 -155 -249 -211 -340 l-103
-165 -5 570 c-6 633 -3 613 -73 655 -30 19 -52 20 -319 20 l-288 0 0 75 0 76
381 -3 381 -3 29 -33 29 -32 0 -354 c0 -337 1 -354 20 -378 37 -48 108 -41
130 12 7 18 10 139 8 391 l-3 364 -31 55 c-37 66 -101 113 -174 129 -32 7
-192 11 -419 11 l-368 0 -24 37 c-13 20 -44 47 -68 60 -39 20 -58 23 -168 23
l-123 0 0 60 c0 97 -36 162 -112 201 -34 18 -62 19 -356 19 -315 0 -319 0
-363 -23z m656 -141 c15 -11 20 -31 25 -102 9 -147 31 -164 217 -164 178 0
173 4 173 -156 l0 -124 -710 0 -710 0 0 124 c0 160 -5 156 175 156 113 0 134
3 163 20 43 27 62 74 62 156 0 109 -15 104 310 104 219 0 280 -3 295 -14z
m1095 -1375 l0 -678 -392 -619 c-260 -410 -393 -630 -396 -652 -8 -59 54 -101
108 -72 10 5 260 392 555 859 l537 849 49 -31 49 -30 -17 -26 c-9 -14 -320
-505 -691 -1091 -371 -586 -678 -1069 -682 -1074 -7 -7 -25 -3 -98 20 -16 5
-4 29 83 166 70 109 79 144 45 178 -23 23 -78 27 -102 7 -23 -17 -160 -242
-186 -303 -22 -52 -152 -578 -152 -614 0 -20 -7 -20 -745 -20 l-745 0 0 1905
0 1905 1390 0 1390 0 0 -679z m947 161 c86 -56 108 -85 107 -141 -1 -35 -68
-161 -86 -161 -6 0 -286 174 -317 196 -1 2 14 31 35 65 73 117 128 126 261 41z
m-212 -340 c83 -52 151 -96 153 -97 2 -2 -13 -28 -33 -58 l-36 -55 -157 100
c-86 54 -158 103 -160 108 -6 16 59 110 71 103 7 -3 80 -49 162 -101z m-11
-346 c-1 -14 -1317 -2101 -1374 -2178 l-27 -37 -39 40 c-32 32 -37 43 -28 57
308 488 1369 2161 1376 2169 8 10 20 7 52 -12 22 -14 40 -31 40 -39z m-727
-2603 c-2 -2 -205 -2 -450 -1 l-446 3 150 120 c82 66 169 143 192 172 23 29
157 234 297 456 l255 403 3 -575 c1 -316 1 -576 -1 -578z m-925 396 c43 -22
104 -74 118 -99 8 -15 -16 -39 -159 -153 l-168 -135 23 96 c13 54 35 149 50
213 l27 117 36 -10 c20 -6 53 -19 73 -29z"/>
<path d="M1135 4021 c-50 -22 -91 -69 -105 -119 -13 -50 -13 -635 1 -685 14
-51 61 -102 112 -122 36 -14 89 -15 378 -13 l336 3 35 24 c19 13 46 40 59 59
l24 35 3 331 c2 182 0 346 -3 364 -8 42 -59 100 -110 123 -36 17 -72 19 -365
19 -294 0 -329 -2 -365 -19z m676 -141 c18 -10 19 -24 19 -320 0 -296 -1 -310
-19 -320 -25 -13 -600 -13 -621 0 -23 14 -28 591 -5 626 l15 24 296 0 c184 0
303 -4 315 -10z"/>
<path d="M1619 3751 c-13 -10 -55 -62 -94 -115 l-70 -97 -18 23 c-45 56 -58
68 -82 74 -47 12 -104 -49 -88 -93 4 -10 26 -46 50 -80 108 -153 157 -152 276
4 158 210 168 233 122 278 -29 30 -64 32 -96 6z"/>
<path d="M2230 3770 c-30 -30 -27 -83 6 -109 26 -21 36 -21 509 -21 473 0 483
0 509 21 34 27 36 77 3 107 -23 22 -24 22 -515 22 -479 0 -493 -1 -512 -20z"/>
<path d="M2237 3460 c-34 -27 -37 -80 -7 -110 19 -19 33 -20 284 -20 l265 0
20 26 c26 33 27 65 2 95 -19 24 -20 24 -278 27 -251 3 -260 2 -286 -18z"/>
<path d="M1172 2830 c-51 -12 -107 -54 -128 -97 -17 -35 -19 -67 -22 -367 l-3
-329 25 -51 c17 -34 39 -60 68 -78 l42 -28 343 0 c318 0 347 1 381 19 46 23
67 46 87 94 12 30 15 91 15 364 0 299 -2 332 -19 369 -23 51 -72 90 -131 103
-52 12 -608 13 -658 1z m646 -162 c17 -17 17 -609 0 -626 -9 -9 -94 -12 -320
-12 l-308 0 -10 26 c-6 14 -10 145 -10 299 0 154 4 285 10 299 l10 26 308 0
c226 0 311 -3 320 -12z"/>
<path d="M1619 2521 c-13 -10 -55 -62 -94 -115 l-70 -97 -18 23 c-45 56 -58
68 -82 74 -47 12 -104 -49 -88 -93 15 -43 117 -172 144 -183 40 -17 91 -5 121
28 30 33 180 238 196 269 18 34 14 62 -13 88 -29 30 -64 32 -96 6z"/>
<path d="M2236 2569 c-33 -26 -36 -79 -6 -109 19 -19 33 -20 364 -20 l345 0
20 26 c24 30 26 43 10 77 -20 44 -41 47 -383 47 -312 0 -324 -1 -350 -21z"/>
<path d="M2232 2254 c-30 -21 -31 -83 -1 -110 19 -17 42 -19 267 -22 263 -3
291 1 311 44 16 35 14 48 -10 78 l-20 26 -263 0 c-220 0 -265 -2 -284 -16z"/>
<path d="M1129 1610 c-48 -25 -86 -72 -99 -121 -7 -26 -10 -154 -8 -362 3
-319 3 -322 27 -360 13 -21 42 -50 64 -65 l40 -27 336 -3 c333 -3 336 -3 380
20 25 13 59 40 75 61 l31 39 0 357 0 357 -27 41 c-16 24 -44 49 -70 62 -43 20
-58 21 -379 21 -309 -1 -337 -2 -370 -20z m689 -142 c9 -9 12 -93 12 -314 0
-262 -2 -305 -16 -318 -13 -14 -56 -16 -310 -16 -283 0 -295 1 -314 20 -20 20
-21 30 -18 321 3 253 5 301 18 309 23 15 613 13 628 -2z"/>
<path d="M1619 1347 c-8 -7 -49 -58 -91 -114 l-75 -103 -32 45 c-18 26 -43 48
-58 51 -34 9 -74 -13 -91 -49 -11 -23 -11 -32 3 -59 29 -62 119 -162 152 -172
59 -16 87 6 193 149 110 148 120 165 120 195 0 51 -80 89 -121 57z"/>
</g>
</svg>
